<mxfile host="Electron" modified="2024-06-19T21:03:00.746Z" agent="Mozilla/5.0 (Windows NT 10.0; Win64; x64) AppleWebKit/537.36 (KHTML, like Gecko) draw.io/24.4.0 Chrome/120.0.6099.109 Electron/28.1.0 Safari/537.36" etag="1xnLJNKa7_mWLqdyKRXf" version="24.4.0" type="device" pages="2">
  <diagram name="MODELE CONCEPTUEL" id="m1cXB1VQNgjbwBwl0vv5">
    <mxGraphModel dx="1621" dy="511" grid="1" gridSize="10" guides="1" tooltips="1" connect="1" arrows="1" fold="1" page="1" pageScale="1" pageWidth="827" pageHeight="1169" math="0" shadow="0">
      <root>
        <mxCell id="0" />
        <mxCell id="1" parent="0" />
        <mxCell id="FdWRsOGufzzjYvJ2t_c--1" value="Pharmarcien" style="swimlane;fontStyle=0;childLayout=stackLayout;horizontal=1;startSize=30;horizontalStack=0;resizeParent=1;resizeParentMax=0;resizeLast=0;collapsible=1;marginBottom=0;whiteSpace=wrap;html=1;" vertex="1" parent="1">
          <mxGeometry x="-70" y="40" width="140" height="180" as="geometry" />
        </mxCell>
        <mxCell id="FdWRsOGufzzjYvJ2t_c--6" value="&lt;b&gt;&lt;u&gt;ID_Pharmarcien&lt;/u&gt;&lt;/b&gt;" style="text;strokeColor=none;fillColor=none;align=left;verticalAlign=middle;spacingLeft=4;spacingRight=4;overflow=hidden;points=[[0,0.5],[1,0.5]];portConstraint=eastwest;rotatable=0;whiteSpace=wrap;html=1;" vertex="1" parent="FdWRsOGufzzjYvJ2t_c--1">
          <mxGeometry y="30" width="140" height="30" as="geometry" />
        </mxCell>
        <mxCell id="FdWRsOGufzzjYvJ2t_c--2" value="Nom_Pharmacien&lt;span style=&quot;white-space: pre;&quot;&gt;&#x9;&lt;/span&gt;" style="text;strokeColor=none;fillColor=none;align=left;verticalAlign=middle;spacingLeft=4;spacingRight=4;overflow=hidden;points=[[0,0.5],[1,0.5]];portConstraint=eastwest;rotatable=0;whiteSpace=wrap;html=1;" vertex="1" parent="FdWRsOGufzzjYvJ2t_c--1">
          <mxGeometry y="60" width="140" height="30" as="geometry" />
        </mxCell>
        <mxCell id="FdWRsOGufzzjYvJ2t_c--5" value="Prenoms_Pharmacien" style="text;strokeColor=none;fillColor=none;align=left;verticalAlign=middle;spacingLeft=4;spacingRight=4;overflow=hidden;points=[[0,0.5],[1,0.5]];portConstraint=eastwest;rotatable=0;whiteSpace=wrap;html=1;" vertex="1" parent="FdWRsOGufzzjYvJ2t_c--1">
          <mxGeometry y="90" width="140" height="30" as="geometry" />
        </mxCell>
        <mxCell id="FdWRsOGufzzjYvJ2t_c--3" value="Email" style="text;strokeColor=none;fillColor=none;align=left;verticalAlign=middle;spacingLeft=4;spacingRight=4;overflow=hidden;points=[[0,0.5],[1,0.5]];portConstraint=eastwest;rotatable=0;whiteSpace=wrap;html=1;" vertex="1" parent="FdWRsOGufzzjYvJ2t_c--1">
          <mxGeometry y="120" width="140" height="30" as="geometry" />
        </mxCell>
        <mxCell id="FdWRsOGufzzjYvJ2t_c--4" value="Password" style="text;strokeColor=none;fillColor=none;align=left;verticalAlign=middle;spacingLeft=4;spacingRight=4;overflow=hidden;points=[[0,0.5],[1,0.5]];portConstraint=eastwest;rotatable=0;whiteSpace=wrap;html=1;" vertex="1" parent="FdWRsOGufzzjYvJ2t_c--1">
          <mxGeometry y="150" width="140" height="30" as="geometry" />
        </mxCell>
        <mxCell id="FdWRsOGufzzjYvJ2t_c--7" value="Produits" style="swimlane;fontStyle=0;childLayout=stackLayout;horizontal=1;startSize=30;horizontalStack=0;resizeParent=1;resizeParentMax=0;resizeLast=0;collapsible=1;marginBottom=0;whiteSpace=wrap;html=1;" vertex="1" parent="1">
          <mxGeometry x="380" y="40" width="140" height="180" as="geometry" />
        </mxCell>
        <mxCell id="FdWRsOGufzzjYvJ2t_c--8" value="&lt;b&gt;&lt;u&gt;ID_Produit&lt;/u&gt;&lt;/b&gt;" style="text;strokeColor=none;fillColor=none;align=left;verticalAlign=middle;spacingLeft=4;spacingRight=4;overflow=hidden;points=[[0,0.5],[1,0.5]];portConstraint=eastwest;rotatable=0;whiteSpace=wrap;html=1;" vertex="1" parent="FdWRsOGufzzjYvJ2t_c--7">
          <mxGeometry y="30" width="140" height="30" as="geometry" />
        </mxCell>
        <mxCell id="FdWRsOGufzzjYvJ2t_c--11" value="Nom_Produit&lt;span style=&quot;white-space: pre;&quot;&gt;&#x9;&lt;/span&gt;" style="text;strokeColor=none;fillColor=none;align=left;verticalAlign=middle;spacingLeft=4;spacingRight=4;overflow=hidden;points=[[0,0.5],[1,0.5]];portConstraint=eastwest;rotatable=0;whiteSpace=wrap;html=1;" vertex="1" parent="FdWRsOGufzzjYvJ2t_c--7">
          <mxGeometry y="60" width="140" height="30" as="geometry" />
        </mxCell>
        <mxCell id="FdWRsOGufzzjYvJ2t_c--12" value="Prix" style="text;strokeColor=none;fillColor=none;align=left;verticalAlign=middle;spacingLeft=4;spacingRight=4;overflow=hidden;points=[[0,0.5],[1,0.5]];portConstraint=eastwest;rotatable=0;whiteSpace=wrap;html=1;" vertex="1" parent="FdWRsOGufzzjYvJ2t_c--7">
          <mxGeometry y="90" width="140" height="30" as="geometry" />
        </mxCell>
        <mxCell id="FdWRsOGufzzjYvJ2t_c--22" value="Description" style="text;strokeColor=none;fillColor=none;align=left;verticalAlign=middle;spacingLeft=4;spacingRight=4;overflow=hidden;points=[[0,0.5],[1,0.5]];portConstraint=eastwest;rotatable=0;whiteSpace=wrap;html=1;" vertex="1" parent="FdWRsOGufzzjYvJ2t_c--7">
          <mxGeometry y="120" width="140" height="30" as="geometry" />
        </mxCell>
        <mxCell id="FdWRsOGufzzjYvJ2t_c--9" value="Date_Peremption" style="text;strokeColor=none;fillColor=none;align=left;verticalAlign=middle;spacingLeft=4;spacingRight=4;overflow=hidden;points=[[0,0.5],[1,0.5]];portConstraint=eastwest;rotatable=0;whiteSpace=wrap;html=1;" vertex="1" parent="FdWRsOGufzzjYvJ2t_c--7">
          <mxGeometry y="150" width="140" height="30" as="geometry" />
        </mxCell>
        <mxCell id="FdWRsOGufzzjYvJ2t_c--13" value="Facture" style="swimlane;fontStyle=0;childLayout=stackLayout;horizontal=1;startSize=30;horizontalStack=0;resizeParent=1;resizeParentMax=0;resizeLast=0;collapsible=1;marginBottom=0;whiteSpace=wrap;html=1;" vertex="1" parent="1">
          <mxGeometry x="110" y="490" width="140" height="120" as="geometry" />
        </mxCell>
        <mxCell id="FdWRsOGufzzjYvJ2t_c--14" value="&lt;b&gt;&lt;u&gt;ID_Facture&lt;/u&gt;&lt;/b&gt;" style="text;strokeColor=none;fillColor=none;align=left;verticalAlign=middle;spacingLeft=4;spacingRight=4;overflow=hidden;points=[[0,0.5],[1,0.5]];portConstraint=eastwest;rotatable=0;whiteSpace=wrap;html=1;" vertex="1" parent="FdWRsOGufzzjYvJ2t_c--13">
          <mxGeometry y="30" width="140" height="30" as="geometry" />
        </mxCell>
        <mxCell id="FdWRsOGufzzjYvJ2t_c--15" value="Date_Facture" style="text;strokeColor=none;fillColor=none;align=left;verticalAlign=middle;spacingLeft=4;spacingRight=4;overflow=hidden;points=[[0,0.5],[1,0.5]];portConstraint=eastwest;rotatable=0;whiteSpace=wrap;html=1;" vertex="1" parent="FdWRsOGufzzjYvJ2t_c--13">
          <mxGeometry y="60" width="140" height="30" as="geometry" />
        </mxCell>
        <mxCell id="FdWRsOGufzzjYvJ2t_c--16" value="&lt;b&gt;&lt;u&gt;#ID_Pharmacien&lt;/u&gt;&lt;/b&gt;" style="text;strokeColor=none;fillColor=none;align=left;verticalAlign=middle;spacingLeft=4;spacingRight=4;overflow=hidden;points=[[0,0.5],[1,0.5]];portConstraint=eastwest;rotatable=0;whiteSpace=wrap;html=1;" vertex="1" parent="FdWRsOGufzzjYvJ2t_c--13">
          <mxGeometry y="90" width="140" height="30" as="geometry" />
        </mxCell>
        <mxCell id="FdWRsOGufzzjYvJ2t_c--17" value="Ligne_Commande" style="swimlane;fontStyle=0;childLayout=stackLayout;horizontal=1;startSize=30;horizontalStack=0;resizeParent=1;resizeParentMax=0;resizeLast=0;collapsible=1;marginBottom=0;whiteSpace=wrap;html=1;" vertex="1" parent="1">
          <mxGeometry x="480" y="490" width="140" height="150" as="geometry" />
        </mxCell>
        <mxCell id="FdWRsOGufzzjYvJ2t_c--18" value="&lt;b&gt;&lt;u&gt;ID_Commande&lt;/u&gt;&lt;/b&gt;" style="text;strokeColor=none;fillColor=none;align=left;verticalAlign=middle;spacingLeft=4;spacingRight=4;overflow=hidden;points=[[0,0.5],[1,0.5]];portConstraint=eastwest;rotatable=0;whiteSpace=wrap;html=1;" vertex="1" parent="FdWRsOGufzzjYvJ2t_c--17">
          <mxGeometry y="30" width="140" height="30" as="geometry" />
        </mxCell>
        <mxCell id="FdWRsOGufzzjYvJ2t_c--19" value="&lt;b&gt;&lt;u&gt;#ID_Facture&lt;/u&gt;&lt;/b&gt;" style="text;strokeColor=none;fillColor=none;align=left;verticalAlign=middle;spacingLeft=4;spacingRight=4;overflow=hidden;points=[[0,0.5],[1,0.5]];portConstraint=eastwest;rotatable=0;whiteSpace=wrap;html=1;" vertex="1" parent="FdWRsOGufzzjYvJ2t_c--17">
          <mxGeometry y="60" width="140" height="30" as="geometry" />
        </mxCell>
        <mxCell id="FdWRsOGufzzjYvJ2t_c--20" value="#&lt;b&gt;&lt;u&gt;ID_Produit&lt;/u&gt;&lt;/b&gt;" style="text;strokeColor=none;fillColor=none;align=left;verticalAlign=middle;spacingLeft=4;spacingRight=4;overflow=hidden;points=[[0,0.5],[1,0.5]];portConstraint=eastwest;rotatable=0;whiteSpace=wrap;html=1;" vertex="1" parent="FdWRsOGufzzjYvJ2t_c--17">
          <mxGeometry y="90" width="140" height="30" as="geometry" />
        </mxCell>
        <mxCell id="FdWRsOGufzzjYvJ2t_c--21" value="QuantitÃ©_Ligne" style="text;strokeColor=none;fillColor=none;align=left;verticalAlign=middle;spacingLeft=4;spacingRight=4;overflow=hidden;points=[[0,0.5],[1,0.5]];portConstraint=eastwest;rotatable=0;whiteSpace=wrap;html=1;" vertex="1" parent="FdWRsOGufzzjYvJ2t_c--17">
          <mxGeometry y="120" width="140" height="30" as="geometry" />
        </mxCell>
        <mxCell id="FdWRsOGufzzjYvJ2t_c--23" value="Stock" style="swimlane;fontStyle=0;childLayout=stackLayout;horizontal=1;startSize=30;horizontalStack=0;resizeParent=1;resizeParentMax=0;resizeLast=0;collapsible=1;marginBottom=0;whiteSpace=wrap;html=1;" vertex="1" parent="1">
          <mxGeometry x="670" y="290" width="140" height="150" as="geometry" />
        </mxCell>
        <mxCell id="FdWRsOGufzzjYvJ2t_c--24" value="&lt;u&gt;&lt;b&gt;ID_Stock&lt;/b&gt;&lt;/u&gt;" style="text;strokeColor=none;fillColor=none;align=left;verticalAlign=middle;spacingLeft=4;spacingRight=4;overflow=hidden;points=[[0,0.5],[1,0.5]];portConstraint=eastwest;rotatable=0;whiteSpace=wrap;html=1;" vertex="1" parent="FdWRsOGufzzjYvJ2t_c--23">
          <mxGeometry y="30" width="140" height="30" as="geometry" />
        </mxCell>
        <mxCell id="FdWRsOGufzzjYvJ2t_c--25" value="&lt;b&gt;&lt;u&gt;#ID_Produit&lt;/u&gt;&lt;/b&gt;" style="text;strokeColor=none;fillColor=none;align=left;verticalAlign=middle;spacingLeft=4;spacingRight=4;overflow=hidden;points=[[0,0.5],[1,0.5]];portConstraint=eastwest;rotatable=0;whiteSpace=wrap;html=1;" vertex="1" parent="FdWRsOGufzzjYvJ2t_c--23">
          <mxGeometry y="60" width="140" height="30" as="geometry" />
        </mxCell>
        <mxCell id="FdWRsOGufzzjYvJ2t_c--27" value="QuantitÃ©" style="text;strokeColor=none;fillColor=none;align=left;verticalAlign=middle;spacingLeft=4;spacingRight=4;overflow=hidden;points=[[0,0.5],[1,0.5]];portConstraint=eastwest;rotatable=0;whiteSpace=wrap;html=1;" vertex="1" parent="FdWRsOGufzzjYvJ2t_c--23">
          <mxGeometry y="90" width="140" height="30" as="geometry" />
        </mxCell>
        <mxCell id="FdWRsOGufzzjYvJ2t_c--28" value="Seuil_Alerte" style="text;strokeColor=none;fillColor=none;align=left;verticalAlign=middle;spacingLeft=4;spacingRight=4;overflow=hidden;points=[[0,0.5],[1,0.5]];portConstraint=eastwest;rotatable=0;whiteSpace=wrap;html=1;" vertex="1" parent="FdWRsOGufzzjYvJ2t_c--23">
          <mxGeometry y="120" width="140" height="30" as="geometry" />
        </mxCell>
        <mxCell id="FdWRsOGufzzjYvJ2t_c--29" value="GÃ¨re" style="ellipse;whiteSpace=wrap;html=1;" vertex="1" parent="1">
          <mxGeometry x="160" y="80" width="120" height="40" as="geometry" />
        </mxCell>
        <mxCell id="FdWRsOGufzzjYvJ2t_c--31" value="" style="endArrow=none;html=1;rounded=0;exitX=1;exitY=0.5;exitDx=0;exitDy=0;entryX=0;entryY=0.5;entryDx=0;entryDy=0;" edge="1" parent="1" source="FdWRsOGufzzjYvJ2t_c--2" target="FdWRsOGufzzjYvJ2t_c--29">
          <mxGeometry width="50" height="50" relative="1" as="geometry">
            <mxPoint x="170" y="220" as="sourcePoint" />
            <mxPoint x="220" y="170" as="targetPoint" />
          </mxGeometry>
        </mxCell>
        <mxCell id="FdWRsOGufzzjYvJ2t_c--32" value="1-n" style="text;html=1;align=center;verticalAlign=middle;resizable=0;points=[];autosize=1;strokeColor=none;fillColor=none;" vertex="1" parent="1">
          <mxGeometry x="70" y="78" width="40" height="30" as="geometry" />
        </mxCell>
        <mxCell id="FdWRsOGufzzjYvJ2t_c--33" value="" style="endArrow=none;html=1;rounded=0;entryX=1;entryY=0.5;entryDx=0;entryDy=0;exitX=0;exitY=0.5;exitDx=0;exitDy=0;" edge="1" parent="1" source="FdWRsOGufzzjYvJ2t_c--11" target="FdWRsOGufzzjYvJ2t_c--29">
          <mxGeometry width="50" height="50" relative="1" as="geometry">
            <mxPoint x="170" y="220" as="sourcePoint" />
            <mxPoint x="220" y="170" as="targetPoint" />
          </mxGeometry>
        </mxCell>
        <mxCell id="FdWRsOGufzzjYvJ2t_c--34" value="1-n" style="text;html=1;align=center;verticalAlign=middle;resizable=0;points=[];autosize=1;strokeColor=none;fillColor=none;" vertex="1" parent="1">
          <mxGeometry x="290" y="68" width="40" height="30" as="geometry" />
        </mxCell>
        <mxCell id="FdWRsOGufzzjYvJ2t_c--35" value="GenÃ¨re" style="ellipse;whiteSpace=wrap;html=1;" vertex="1" parent="1">
          <mxGeometry x="-10" y="310" width="120" height="50" as="geometry" />
        </mxCell>
        <mxCell id="FdWRsOGufzzjYvJ2t_c--36" value="" style="endArrow=none;html=1;rounded=0;entryX=0.517;entryY=1.189;entryDx=0;entryDy=0;entryPerimeter=0;exitX=0.431;exitY=-0.033;exitDx=0;exitDy=0;exitPerimeter=0;" edge="1" parent="1" source="FdWRsOGufzzjYvJ2t_c--35" target="FdWRsOGufzzjYvJ2t_c--4">
          <mxGeometry width="50" height="50" relative="1" as="geometry">
            <mxPoint x="200" y="490" as="sourcePoint" />
            <mxPoint x="250" y="440" as="targetPoint" />
          </mxGeometry>
        </mxCell>
        <mxCell id="FdWRsOGufzzjYvJ2t_c--37" value="1-n" style="text;html=1;align=center;verticalAlign=middle;resizable=0;points=[];autosize=1;strokeColor=none;fillColor=none;" vertex="1" parent="1">
          <mxGeometry x="10" y="248" width="40" height="30" as="geometry" />
        </mxCell>
        <mxCell id="FdWRsOGufzzjYvJ2t_c--38" value="" style="endArrow=none;html=1;rounded=0;exitX=0.614;exitY=1.06;exitDx=0;exitDy=0;exitPerimeter=0;entryX=0.14;entryY=-0.014;entryDx=0;entryDy=0;entryPerimeter=0;" edge="1" parent="1" source="FdWRsOGufzzjYvJ2t_c--35" target="FdWRsOGufzzjYvJ2t_c--13">
          <mxGeometry width="50" height="50" relative="1" as="geometry">
            <mxPoint x="200" y="340" as="sourcePoint" />
            <mxPoint x="250" y="290" as="targetPoint" />
          </mxGeometry>
        </mxCell>
        <mxCell id="FdWRsOGufzzjYvJ2t_c--39" value="1-1" style="text;html=1;align=center;verticalAlign=middle;resizable=0;points=[];autosize=1;strokeColor=none;fillColor=none;" vertex="1" parent="1">
          <mxGeometry x="90" y="378" width="40" height="30" as="geometry" />
        </mxCell>
        <mxCell id="FdWRsOGufzzjYvJ2t_c--40" value="Contient" style="ellipse;whiteSpace=wrap;html=1;" vertex="1" parent="1">
          <mxGeometry x="310" y="540" width="100" height="45" as="geometry" />
        </mxCell>
        <mxCell id="FdWRsOGufzzjYvJ2t_c--41" value="" style="endArrow=none;html=1;rounded=0;entryX=0;entryY=0.5;entryDx=0;entryDy=0;" edge="1" parent="1" target="FdWRsOGufzzjYvJ2t_c--40">
          <mxGeometry width="50" height="50" relative="1" as="geometry">
            <mxPoint x="250" y="560" as="sourcePoint" />
            <mxPoint x="610" y="510" as="targetPoint" />
          </mxGeometry>
        </mxCell>
        <mxCell id="FdWRsOGufzzjYvJ2t_c--42" value="1-n" style="text;html=1;align=center;verticalAlign=middle;resizable=0;points=[];autosize=1;strokeColor=none;fillColor=none;" vertex="1" parent="1">
          <mxGeometry x="250" y="528" width="40" height="30" as="geometry" />
        </mxCell>
        <mxCell id="FdWRsOGufzzjYvJ2t_c--43" value="" style="endArrow=none;html=1;rounded=0;exitX=1;exitY=0.5;exitDx=0;exitDy=0;entryX=0;entryY=0.5;entryDx=0;entryDy=0;" edge="1" parent="1" source="FdWRsOGufzzjYvJ2t_c--40" target="FdWRsOGufzzjYvJ2t_c--19">
          <mxGeometry width="50" height="50" relative="1" as="geometry">
            <mxPoint x="390" y="560" as="sourcePoint" />
            <mxPoint x="440" y="510" as="targetPoint" />
          </mxGeometry>
        </mxCell>
        <mxCell id="FdWRsOGufzzjYvJ2t_c--44" value="1-1" style="text;html=1;align=center;verticalAlign=middle;resizable=0;points=[];autosize=1;strokeColor=none;fillColor=none;" vertex="1" parent="1">
          <mxGeometry x="410" y="558" width="40" height="30" as="geometry" />
        </mxCell>
        <mxCell id="FdWRsOGufzzjYvJ2t_c--45" value="Concerne" style="ellipse;whiteSpace=wrap;html=1;" vertex="1" parent="1">
          <mxGeometry x="420" y="320" width="120" height="50" as="geometry" />
        </mxCell>
        <mxCell id="FdWRsOGufzzjYvJ2t_c--46" value="" style="endArrow=none;html=1;rounded=0;exitX=0.5;exitY=0;exitDx=0;exitDy=0;entryX=0.536;entryY=0.967;entryDx=0;entryDy=0;entryPerimeter=0;" edge="1" parent="1" source="FdWRsOGufzzjYvJ2t_c--45" target="FdWRsOGufzzjYvJ2t_c--9">
          <mxGeometry width="50" height="50" relative="1" as="geometry">
            <mxPoint x="630" y="350" as="sourcePoint" />
            <mxPoint x="680" y="300" as="targetPoint" />
          </mxGeometry>
        </mxCell>
        <mxCell id="FdWRsOGufzzjYvJ2t_c--47" value="" style="endArrow=none;html=1;rounded=0;exitX=0.5;exitY=1;exitDx=0;exitDy=0;entryX=0.5;entryY=0;entryDx=0;entryDy=0;" edge="1" parent="1" source="FdWRsOGufzzjYvJ2t_c--45" target="FdWRsOGufzzjYvJ2t_c--17">
          <mxGeometry width="50" height="50" relative="1" as="geometry">
            <mxPoint x="630" y="350" as="sourcePoint" />
            <mxPoint x="680" y="300" as="targetPoint" />
          </mxGeometry>
        </mxCell>
        <mxCell id="FdWRsOGufzzjYvJ2t_c--48" value="1-1" style="text;html=1;align=center;verticalAlign=middle;resizable=0;points=[];autosize=1;strokeColor=none;fillColor=none;" vertex="1" parent="1">
          <mxGeometry x="450" y="408" width="40" height="30" as="geometry" />
        </mxCell>
        <mxCell id="FdWRsOGufzzjYvJ2t_c--49" value="1-n" style="text;html=1;align=center;verticalAlign=middle;resizable=0;points=[];autosize=1;strokeColor=none;fillColor=none;" vertex="1" parent="1">
          <mxGeometry x="410" y="238" width="40" height="30" as="geometry" />
        </mxCell>
        <mxCell id="FdWRsOGufzzjYvJ2t_c--50" value="EnregistrÃ©" style="ellipse;whiteSpace=wrap;html=1;" vertex="1" parent="1">
          <mxGeometry x="610" y="198" width="130" height="50" as="geometry" />
        </mxCell>
        <mxCell id="FdWRsOGufzzjYvJ2t_c--51" value="" style="endArrow=none;html=1;rounded=0;entryX=0;entryY=0;entryDx=0;entryDy=0;exitX=0.998;exitY=0.3;exitDx=0;exitDy=0;exitPerimeter=0;" edge="1" parent="1" source="FdWRsOGufzzjYvJ2t_c--12" target="FdWRsOGufzzjYvJ2t_c--50">
          <mxGeometry width="50" height="50" relative="1" as="geometry">
            <mxPoint x="440" y="290" as="sourcePoint" />
            <mxPoint x="490" y="240" as="targetPoint" />
          </mxGeometry>
        </mxCell>
        <mxCell id="FdWRsOGufzzjYvJ2t_c--52" value="0-1" style="text;html=1;align=center;verticalAlign=middle;resizable=0;points=[];autosize=1;strokeColor=none;fillColor=none;" vertex="1" parent="1">
          <mxGeometry x="550" y="128" width="40" height="30" as="geometry" />
        </mxCell>
        <mxCell id="FdWRsOGufzzjYvJ2t_c--53" value="" style="endArrow=none;html=1;rounded=0;exitX=0.5;exitY=0;exitDx=0;exitDy=0;entryX=0.649;entryY=1.047;entryDx=0;entryDy=0;entryPerimeter=0;" edge="1" parent="1" source="FdWRsOGufzzjYvJ2t_c--23" target="FdWRsOGufzzjYvJ2t_c--50">
          <mxGeometry width="50" height="50" relative="1" as="geometry">
            <mxPoint x="440" y="290" as="sourcePoint" />
            <mxPoint x="490" y="240" as="targetPoint" />
          </mxGeometry>
        </mxCell>
        <mxCell id="FdWRsOGufzzjYvJ2t_c--54" value="1-1" style="text;html=1;align=center;verticalAlign=middle;resizable=0;points=[];autosize=1;strokeColor=none;fillColor=none;" vertex="1" parent="1">
          <mxGeometry x="730" y="238" width="40" height="30" as="geometry" />
        </mxCell>
      </root>
    </mxGraphModel>
  </diagram>
  <diagram id="WAR9Y65t-wzDgXsucmQy" name="MODELE RELATIONNEL">
    <mxGraphModel dx="794" dy="511" grid="1" gridSize="10" guides="1" tooltips="1" connect="1" arrows="1" fold="1" page="1" pageScale="1" pageWidth="827" pageHeight="1169" math="0" shadow="0">
      <root>
        <mxCell id="0" />
        <mxCell id="1" parent="0" />
        <mxCell id="5ECgEGrs-tRl_yYPljlf-1" value="Text" style="text;html=1;align=center;verticalAlign=middle;whiteSpace=wrap;rounded=0;" vertex="1" parent="1">
          <mxGeometry x="350" y="200" width="60" height="30" as="geometry" />
        </mxCell>
        <mxCell id="5ECgEGrs-tRl_yYPljlf-2" value="Pharmacien(&lt;b style=&quot;text-align: left;&quot;&gt;&lt;u&gt;ID_Pharmarcien,&amp;nbsp;&lt;/u&gt;&lt;/b&gt;&lt;span style=&quot;text-align: left;&quot;&gt;Nom_Pharmacien,&amp;nbsp;&lt;/span&gt;&lt;span style=&quot;text-align: left;&quot;&gt;Prenoms_Pharmacien,&amp;nbsp;&lt;/span&gt;&lt;span style=&quot;text-align: left;&quot;&gt;Email,&amp;nbsp;&lt;/span&gt;&lt;span style=&quot;text-align: left;&quot;&gt;Password)&lt;/span&gt;" style="rounded=0;whiteSpace=wrap;html=1;" vertex="1" parent="1">
          <mxGeometry x="22" y="50" width="540" height="60" as="geometry" />
        </mxCell>
        <mxCell id="I9dltsNNOKFKt1Cn-SXL-1" value="Produits (&amp;nbsp;&lt;b style=&quot;text-align: left;&quot;&gt;&lt;u&gt;ID_Produit,&amp;nbsp;&lt;/u&gt;&lt;/b&gt;&lt;span style=&quot;text-align: left;&quot;&gt;Nom_Produit,&amp;nbsp;&lt;/span&gt;&lt;span style=&quot;text-align: left;&quot;&gt;Description,&amp;nbsp;&lt;/span&gt;&lt;span style=&quot;text-align: left;&quot;&gt;Prix,&amp;nbsp;&lt;/span&gt;&lt;span style=&quot;text-align: left;&quot;&gt;Date_Peremption )&lt;/span&gt;" style="rounded=0;whiteSpace=wrap;html=1;" vertex="1" parent="1">
          <mxGeometry x="22" y="120" width="538" height="60" as="geometry" />
        </mxCell>
        <mxCell id="55lxZkR8hUXDFxyXfC1y-2" value="Facture(&amp;nbsp;&lt;b style=&quot;text-align: left;&quot;&gt;&lt;u&gt;ID_Facture,&amp;nbsp;&lt;/u&gt;&lt;/b&gt;&lt;span style=&quot;text-align: left;&quot;&gt;Date_Facture,&amp;nbsp;&lt;/span&gt;&lt;b style=&quot;text-align: left;&quot;&gt;&lt;u&gt;#&lt;/u&gt;ID_Pharmacien&lt;u&gt;)&lt;/u&gt;&lt;/b&gt;" style="rounded=0;whiteSpace=wrap;html=1;" vertex="1" parent="1">
          <mxGeometry x="20" y="200" width="540" height="60" as="geometry" />
        </mxCell>
        <mxCell id="55lxZkR8hUXDFxyXfC1y-3" value="Ligne_Commande (&amp;nbsp;&lt;b style=&quot;text-align: left;&quot;&gt;&lt;u&gt;ID_Commande,&amp;nbsp;&lt;/u&gt;&lt;/b&gt;&lt;b style=&quot;text-align: left;&quot;&gt;&lt;u&gt;#&lt;/u&gt;ID_Facture&lt;u&gt;,&amp;nbsp;&lt;/u&gt;&lt;/b&gt;&lt;span style=&quot;text-align: left;&quot;&gt;#&lt;/span&gt;&lt;b style=&quot;text-align: left;&quot;&gt;ID_Produit&lt;u&gt;,&amp;nbsp;&lt;/u&gt;&lt;/b&gt;&lt;span style=&quot;text-align: left;&quot;&gt;QuantitÃ©_Ligne)&lt;/span&gt;" style="rounded=0;whiteSpace=wrap;html=1;" vertex="1" parent="1">
          <mxGeometry x="21" y="280" width="540" height="60" as="geometry" />
        </mxCell>
        <mxCell id="LW8MkEsfg6DQ8ZalQPef-1" value="Stock (&lt;u style=&quot;text-align: left;&quot;&gt;&lt;b&gt;ID_Stock,&amp;nbsp;&lt;/b&gt;&lt;/u&gt;&lt;b style=&quot;text-align: left;&quot;&gt;&lt;u&gt;#&lt;/u&gt;ID_Produit&lt;u&gt;,&amp;nbsp;&lt;/u&gt;&lt;/b&gt;&lt;span style=&quot;text-align: left;&quot;&gt;QuantitÃ©,&amp;nbsp;&lt;/span&gt;&lt;span style=&quot;text-align: left;&quot;&gt;Seuil_Alerte)&lt;/span&gt;" style="rounded=0;whiteSpace=wrap;html=1;" vertex="1" parent="1">
          <mxGeometry x="22" y="390" width="538" height="60" as="geometry" />
        </mxCell>
        <mxCell id="4qfYbRgm9unvqeqggB57-2" value="Gestion(&lt;b&gt;#&lt;u&gt;&lt;span style=&quot;text-align: left;&quot;&gt;ID_Produit,#&lt;/span&gt;&lt;span style=&quot;text-align: left;&quot;&gt;ID_Pharmarcien )&lt;/span&gt;&lt;/u&gt;&lt;/b&gt;" style="rounded=0;whiteSpace=wrap;html=1;" vertex="1" parent="1">
          <mxGeometry x="30" y="500" width="539" height="60" as="geometry" />
        </mxCell>
      </root>
    </mxGraphModel>
  </diagram>
</mxfile>
